<svg xmlns="http://www.w3.org/2000/svg" viewBox="0 0 24 24">
    <style>
        /* Esto hace que el icono sea negro en modo claro y blanco en modo oscuro */
        path {
        fill: oklch(25.7% 0.09 281.288);
        }

        /* Cuando el navegador está en Modo Oscuro:
        Usamos un índigo más CLARO (#818cf8 / indigo-400) para que resalte sobre fondo negro. */
        @media (prefers-color-scheme: dark) {
        path {
        fill: oklch(78.5% 0.115 274.713);
        }
        }
    </style>
    <path d="M4 12a1 1 0 0 0 1 1h7.59l-2.3 2.29a1 1 0 0 0 0 1.42 1 1 0 0 0 1.42 0l4-4a1 1 0 0 0 .21-.33 1 1 0 0 0 0-.76 1 1 0 0 0-.21-.33l-4-4a1 1 0 1 0-1.42 1.42l2.3 2.29H5a1 1 0 0 0-1 1M17 2H7a3 3 0 0 0-3 3v3a1 1 0 0 0 2 0V5a1 1 0 0 1 1-1h10a1 1 0 0 1 1 1v14a1 1 0 0 1-1 1H7a1 1 0 0 1-1-1v-3a1 1 0 0 0-2 0v3a3 3 0 0 0 3 3h10a3 3 0 0 0 3-3V5a3 3 0 0 0-3-3"/>
</svg>